<svg width="82" height="141" viewBox="0 0 82 141" fill="none" xmlns="http://www.w3.org/2000/svg">
<path d="M46.2396 0.563254C45.6633 0.850629 44.039 1.50376 42.6243 1.97401C39.3495 3.07126 38.4326 3.64601 37.3323 5.29189L36.4153 6.65039V11.8754C36.4153 15.0104 36.2843 17.5707 36.101 18.276C35.8914 19.0076 35.7866 21.8029 35.7866 25.7217L35.7604 31.9917L34.6601 35.1267C33.9265 37.1906 33.4026 39.2806 33.1406 41.2661C32.6166 45.002 32.407 45.8119 31.6473 46.9091L31.0447 47.7974L28.4249 47.6406C25.9623 47.4839 25.7003 47.4055 24.207 46.465C22.347 45.2632 21.9278 45.211 21.5348 46.0992C21.3776 46.465 21.0633 46.7524 20.8275 46.7524C20.6179 46.7524 20.4345 46.9352 20.4345 47.1442C20.4345 47.3532 20.3035 47.5361 20.1725 47.5361C20.0153 47.5361 19.7534 47.8235 19.5962 48.1892C19.439 48.555 19.1246 48.8424 18.9412 48.8424C18.7316 48.8424 18.3387 48.9469 18.0767 49.1036C17.6313 49.3388 17.6313 49.4171 18.0243 50.6711C18.4173 51.9251 18.4173 52.0035 17.8671 52.9963C17.5527 53.5449 17.2907 54.3025 17.2907 54.6944C17.2907 55.3475 17.2383 55.3736 15.745 55.3736C13.8326 55.3736 11.4224 56.1051 9.69329 57.2024C8.98594 57.6726 8.38339 58.1168 8.38339 58.1951C8.38339 58.2735 9.32652 58.2474 10.4792 58.169C11.6319 58.0645 12.5751 58.0645 12.5751 58.1429C12.5751 58.2213 12.1821 58.7699 11.6843 59.3447C9.82428 61.513 7.85943 66.3462 7.85943 68.7758C7.85943 69.4028 8.04281 69.1938 8.88115 67.4957C9.45751 66.3462 10.453 64.6742 11.108 63.7598L12.2869 62.0878V65.5363C12.2869 69.1416 12.7323 73.3477 13.1252 73.7657C13.2562 73.9224 13.361 73.6612 13.361 73.0864C13.361 71.6496 14.0684 68.3055 14.6185 67.0254C15.1687 65.7975 15.7189 65.275 15.7189 65.9543C15.7189 66.4507 16.7406 66.8687 17.9457 66.8687C18.4435 66.8687 18.8888 66.9732 18.9674 67.1038C19.1246 67.3389 15.9284 71.3883 14.147 73.2693C12.8633 74.6278 11.5272 76.6917 9.43131 80.6888C7.67604 84.0067 7.30927 84.5031 5.63259 85.7832C4.63706 86.5408 4.29649 87.1679 3.01278 90.6164C2.46262 92.0271 1.96486 92.8892 1.12652 93.673C0.523962 94.2739 0 94.9009 0 95.0576C0 95.6062 0.995527 95.345 2.30543 94.4567L3.64153 93.5685L3.92971 95.3189C4.42748 98.271 5.00383 98.5323 5.18722 95.8675L5.29201 94.3L6.62812 95.345C8.77636 97.0431 8.93355 96.7296 7.20447 94.2216C6.02556 92.4974 5.89457 92.1055 6.18275 91.3217C6.49712 90.4857 6.99489 90.9299 7.41406 92.4712C7.85943 93.9865 8.2 94.4045 8.46198 93.6991C8.54058 93.4901 8.67157 92.001 8.77636 90.3812C8.90735 88.448 9.14313 87.0372 9.45751 86.358C9.74569 85.7048 11.239 83.9806 13.3872 81.8906C15.2735 80.0096 17.2121 77.8934 17.6837 77.1881C18.1553 76.4566 19.5962 74.7062 20.8537 73.2693C23.4211 70.3956 23.5259 70.3956 23.0805 73.3999C22.6875 75.8557 21.9278 77.8151 20.5393 79.8267C19.3604 81.551 19.3866 81.7861 20.6703 81.133C21.5086 80.6888 22.478 79.5132 23.2901 77.8673L23.8927 76.7178L24.6262 78.0241C25.5955 79.7222 28.8703 82.7266 30.8875 83.8238L32.4856 84.6598L31.1757 83.3013C30.3374 82.4131 29.4204 81.0285 28.5821 79.3042C26.6958 75.4377 26.6435 75.0981 28.1891 76.6656C30.6518 79.0952 33.8479 80.7411 36.1272 80.715L37.0703 80.6888L35.6294 80.0096C33.8217 79.1475 31.5687 76.8746 30.4684 74.7846C29.9968 73.9224 29.6038 73.1387 29.6038 73.0603C29.6038 72.9819 30.1016 73.1909 30.7042 73.5306C31.3329 73.8702 32.4332 74.3927 33.1668 74.6801L34.5029 75.2026L33.1668 73.8441C31.8569 72.5117 31.2019 71.1532 30.7827 68.9587L30.5994 68.0443L31.4377 69.1677C32.538 70.6046 34.1099 71.6757 35.97 72.2243C37.961 72.7991 38.354 72.6162 36.9131 71.7802C34.9482 70.6307 33.6645 69.3244 32.7476 67.6002C31.9355 66.111 31.8569 65.7453 31.8307 63.7337V61.513L33.9789 61.4347C38.5636 61.2779 43.3578 63.3157 44.3796 65.8759C44.9821 67.365 45.2179 71.3883 44.7987 73.1387C44.6153 73.9224 44.4581 75.3332 44.4581 76.2998C44.4581 78.5466 45.3227 80.4276 47.1304 82.0996C48.7022 83.5626 48.8594 84.3202 48.1521 86.985C47.7067 88.7092 47.6543 89.4669 47.8115 93.4379C47.9425 97.3828 47.8901 98.2971 47.4185 100.857C47.1042 102.477 46.5802 104.646 46.2396 105.664C45.2703 108.669 45.2179 109.74 45.8728 116.428C46.3444 121.496 46.3968 123.038 46.1872 124.919C45.9252 127.087 45.8728 127.27 44.8249 128.393C44.1962 129.072 43.7508 129.804 43.7508 130.17C43.7508 131.319 45.1131 133.592 46.161 134.141C46.9732 134.585 47.1566 134.846 47.5495 136.257C48.1521 138.504 49.1214 140.463 49.6978 140.62C49.9597 140.698 51.0601 140.829 52.1342 140.933C53.6799 141.064 54.2038 141.012 54.623 140.698C55.3827 140.149 54.9112 139.549 53.2345 138.922C51.4792 138.268 51.2173 137.485 51.846 134.506C52.108 133.148 52.108 132.338 51.8984 130.927C51.4792 128.184 51.5316 122.463 52.0294 120.294C52.239 119.276 52.5272 116.297 52.6319 113.633C52.7629 110.968 52.9987 108.303 53.1559 107.676C53.3393 107.049 54.099 105.064 54.885 103.209C55.6447 101.38 56.4569 99.0548 56.6665 98.062L57.007 96.2594L59.8102 94.1694C63.347 91.5046 64.0543 90.7992 64.7617 89.3624C65.1284 88.5525 66.7527 86.7498 69.6869 83.85C74.4288 79.1475 77.1534 76.0124 78.8038 73.3999C79.4064 72.4594 80.1923 71.4144 80.5329 71.0487C81.3974 70.1866 82 68.6974 82 67.4434C82 65.4318 79.485 62.9499 77.4677 62.9499C75.1099 62.9499 62.1157 65.1183 59.3125 65.9543C58.8409 66.111 58.6837 65.9804 58.4217 65.1705C58.1073 64.23 56.1163 61.1734 51.8984 55.243C50.6933 53.5188 49.4358 51.481 49.0952 50.7234C48.7808 49.9396 48.1259 48.9208 47.6543 48.4244C46.7636 47.51 44.8773 46.7524 43.4888 46.7524C43.0173 46.7524 42.3885 46.3344 41.4192 45.3416L40.0045 43.9309L40.1879 35.3357C40.2927 29.6143 40.5022 25.8523 40.7642 24.0236C41.1834 21.3588 41.1834 21.1498 40.6332 18.1454C39.9783 14.305 39.4805 9.3674 39.7163 8.47915C39.8211 8.06115 40.0569 7.82602 40.3712 7.82602C40.6332 7.82602 41.3144 7.64315 41.8907 7.40802C42.8077 7.04227 43.0435 7.04227 44.301 7.40802C46.292 8.0089 46.5802 7.56477 45.0607 6.23239C44.4058 5.68377 43.9866 5.21352 44.0914 5.21352C44.2224 5.21352 45.1655 5.08289 46.1872 4.92614C49.3048 4.48201 50.4575 3.95951 49.3572 3.54151C49.1214 3.46314 48.6498 3.38476 48.2831 3.38476C47.6019 3.38476 47.6281 3.35864 48.6236 2.49651C49.1738 2.00013 49.5668 1.52988 49.462 1.42538C49.3572 1.32088 48.7546 1.42538 48.0735 1.63438L46.8946 2.05238L47.5495 1.19026C47.9163 0.720004 48.2045 0.249753 48.2045 0.171378C48.2045 -0.168248 47.2875 0.0146272 46.2396 0.563254ZM63.7137 75.9341C63.4256 76.3521 62.5872 77.7106 61.8275 79.0168C61.0677 80.297 59.8626 82.2302 59.1291 83.2491L57.8454 85.1562H56.5093H55.1994L55.3827 83.9545C55.4613 83.2752 55.5399 82.2302 55.5399 81.6293C55.5399 80.5321 55.5661 80.506 56.7189 80.1925C57.4262 79.9835 58.5527 79.3042 59.653 78.3898C61.8275 76.5611 63.6613 75.2287 63.9757 75.2287C64.1067 75.2287 64.0019 75.5422 63.7137 75.9341Z" fill="#E12C6D"/>
</svg>
