<svg width="73" height="73" viewBox="0 0 73 73" fill="none" xmlns="http://www.w3.org/2000/svg">
<g clip-path="url(#clip0_90_268)">
<path d="M36.5 0C16.343 0 0 16.343 0 36.5C0 56.6593 16.343 73 36.5 73C56.657 73 73 56.6593 73 36.5C73 16.343 56.657 0 36.5 0ZM51.0096 33.5059H41.0136L39.9398 35.1767V39.1779H51.0097V39.1913V44.0479V44.8589H39.9398V53.4359H33.0627V44.8589H21.9927V44.0479V39.1913V39.1779H33.0626V35.1834L31.9865 33.5059H21.9927V28.6559H28.8654L23.0219 19.5643H28.8498L36.4979 31.4651L44.1526 19.5643H49.9782L44.1392 28.6559H51.0097V33.5059H51.0096Z" fill="#E12C6D"/>
</g>
<defs>
<clipPath id="clip0_90_268">
<rect width="73" height="73" fill="white"/>
</clipPath>
</defs>
</svg>
