<svg width="150" height="150" viewBox="0 0 150 150" fill="none" xmlns="http://www.w3.org/2000/svg">
<g clip-path="url(#clip0_450_24)">
<path d="M38.8702 112.682C38.8658 112.682 38.8614 112.682 38.8573 112.684L36.6489 113.427L38.8702 112.682Z" fill="black"/>
<path d="M25.7854 92.3447V92.3473C25.7854 92.3473 25.7854 92.3473 25.788 92.3473L25.7854 92.3447Z" fill="black"/>
<path d="M103.081 108.898C169.605 60.1769 115.521 -27.8941 53.2523 8.64667C36.6486 11.4557 19.2126 21.7641 23.3651 38.63C23.8195 40.4777 24.6519 42.2168 25.7265 43.8354C24.6255 46.863 24.0618 49.8231 24.0577 52.5621C24.0577 53.4753 24.121 54.3598 24.2499 55.2184C24.6299 57.7263 24.8288 59.8362 24.8288 61.6755C24.8288 61.9333 24.8224 62.1823 24.8136 62.4313C22.367 63.2833 19.0292 64.1877 16.4165 63.9255C16.4165 63.9255 19.4616 66.3565 24.0773 67.0556C23.9027 67.6125 23.6953 68.1586 23.4507 68.7114C22.4938 70.8606 20.9385 73.0913 18.5599 75.813C17.9153 76.5469 17.4173 77.2939 17.0745 78.0718C16.7294 78.8493 16.546 79.6664 16.5501 80.4595C16.546 81.3987 16.8059 82.2659 17.1771 82.9737C17.7407 84.0439 18.5074 84.7802 19.2064 85.3438C19.8926 85.8923 20.5453 86.2767 20.9604 86.5298C21.0041 86.5582 21.2162 86.84 21.3536 87.2244C21.5042 87.6111 21.5938 88.0939 21.5915 88.4695C21.5938 88.7144 21.5566 88.9107 21.5194 89.02L21.4758 89.1249L21.469 89.1337L21.4758 89.1272V89.1293L21.469 89.1337L21.467 89.1363C21.1087 89.5011 20.7855 89.9027 20.5406 90.3879C20.2916 90.8686 20.1322 91.4496 20.1346 92.035C20.1322 92.7208 20.3487 93.3457 20.6127 93.8045C21.019 94.5035 21.4863 94.9207 21.893 95.2682C22.002 95.3599 22.1004 95.4296 22.2009 95.5107C22.1681 95.6001 22.1353 95.6965 22.096 95.799C22.0087 96.0416 21.9082 96.3146 21.8209 96.6422C21.7356 96.9677 21.6527 97.3479 21.6483 97.8369C21.6483 98.2477 21.7204 98.7586 21.9715 99.2807C22.2161 99.8027 22.6512 100.275 23.1164 100.565L23.2169 100.629L23.1252 100.572C23.7149 100.961 23.9071 101.253 24.0773 101.625C24.235 101.996 24.3179 102.525 24.3135 103.213C24.3199 104.054 24.1869 105.069 24.1802 106.216C24.1802 106.566 24.1957 106.928 24.2437 107.311L24.237 107.254L24.2437 107.315V107.317C24.3267 107.981 24.5036 108.706 24.8268 109.453C25.3096 110.567 26.1639 111.738 27.4743 112.577C28.7827 113.425 30.4755 113.901 32.4612 113.896C34.2873 113.892 36.382 113.514 38.8573 112.684L38.8726 112.678C40.8363 112.018 42.5382 111.738 44.0232 111.738C46.1183 111.747 47.7891 112.269 49.3055 113.193C50.4369 113.888 51.4787 114.831 52.4399 115.989C53.8837 117.726 55.1335 119.952 56.2058 122.407C57.2827 124.869 58.1851 127.551 58.9907 130.196C59.5063 131.879 59.7138 133.436 59.7138 134.878C59.7138 138.414 58.4558 141.328 57.1603 143.395C56.5181 144.419 55.8691 145.225 55.3975 145.754C55.1596 146.023 54.9671 146.222 54.8382 146.348L54.7005 146.479L54.6785 146.499L54.6744 146.505L55.5829 147.512L57.7937 150C57.905 149.896 59.5084 148.462 61.1291 145.885C62.7457 143.309 64.3969 139.542 64.3969 134.878C64.3969 132.984 64.1218 130.948 63.4708 128.825C61.9811 123.976 60.155 118.753 57.2101 114.53C55.7335 112.424 53.9555 110.554 51.7556 109.2C49.5601 107.846 46.9409 107.046 44.0227 107.055C41.952 107.055 39.7368 107.444 37.3734 108.241L37.3758 108.239C35.2482 108.955 33.6272 109.213 32.4609 109.208C31.609 109.208 31.002 109.082 30.5648 108.916C29.9115 108.658 29.5928 108.348 29.335 107.976C29.0859 107.607 28.9397 107.137 28.8894 106.736C28.8741 106.603 28.8633 106.43 28.8633 106.216C28.8568 105.508 28.9945 104.451 28.9986 103.212C28.9966 102.201 28.8981 101.028 28.398 99.8197C28.0266 98.9068 27.3976 98.02 26.5412 97.2814C26.5696 97.2029 26.598 97.1244 26.6309 97.0345C26.7205 96.7898 26.8187 96.5124 26.9083 96.1828C26.9936 95.8529 27.0744 95.4683 27.0765 94.9813C27.0765 94.5899 27.0152 94.1142 26.7987 93.6205C26.5913 93.131 26.2178 92.6613 25.7851 92.3467C25.5776 92.1917 25.3919 92.054 25.2237 91.9295C25.5647 91.4684 25.8094 90.9726 25.9688 90.4834C26.1917 89.8019 26.2746 89.1269 26.2767 88.4692C26.2726 87.3114 26.0212 86.2063 25.5844 85.195C25.3617 84.6858 25.0884 84.2054 24.7433 83.753C24.394 83.301 23.9678 82.8747 23.3997 82.5296H23.4021C23.1246 82.3658 22.8319 82.1868 22.5437 81.9899C22.1112 81.6973 21.7157 81.3521 21.4972 81.0659C21.3858 80.9218 21.3182 80.7993 21.281 80.7056C21.2461 80.6095 21.2332 80.5482 21.2332 80.4589C21.2332 80.3628 21.2484 80.2163 21.3598 79.9632C21.4711 79.7098 21.6896 79.3471 22.0828 78.8971C24.6211 75.992 26.4932 73.3925 27.7298 70.616C28.9726 67.8395 29.521 64.9301 29.5143 61.6752C29.5119 59.504 29.2828 57.1643 28.8832 54.5168C28.7892 53.9118 28.7411 53.2564 28.7411 52.5618C28.7411 51.2033 28.9356 49.6872 29.3265 48.0817C36.0765 54.5976 45.7819 58.3025 45.7819 58.3025L48.2722 40.5018C48.2722 40.5018 50.688 75.3082 64.6682 92.9689C71.3766 101.442 78.4802 105.787 84.7342 107.919C84.6141 108.666 84.5464 109.501 84.5464 110.44C84.5508 114.359 85.6822 120.016 89.2998 126.858C91.6128 131.218 94.8352 134.46 97.4716 136.644C100.112 138.829 102.185 139.951 102.282 140.004L104.145 136.557L104.512 135.884C104.49 135.875 102.644 134.858 100.346 132.944C98.0479 131.029 95.315 128.215 93.4409 124.665C90.1339 118.424 89.2271 113.459 89.2292 110.44C89.2292 109.949 89.2556 109.519 89.2948 109.141C97.3359 110.724 103.081 108.898 103.081 108.898Z" fill="black"/>
</g>
<defs>
<clipPath id="clip0_450_24">
<rect width="150" height="150" fill="white"/>
</clipPath>
</defs>
</svg>
