<svg width="150" height="150" viewBox="0 0 150 150" fill="none" xmlns="http://www.w3.org/2000/svg">
<g clip-path="url(#clip0_450_20)">
<path d="M28.355 109.62C28.3503 109.62 28.3479 109.622 28.3406 109.622L25.9532 110.427L28.355 109.62Z" fill="black"/>
<path d="M133.315 71.5683C153.591 41.3257 147.507 15.8096 128.754 5.16665C111.154 -4.82623 100.945 4.24731 89.7228 7.29887C75.5306 -2.18189 55.6787 -3.31744 30.9267 9.22016C18.7602 8.71567 4.06113 20.8797 6.59618 32.534C7.42822 36.3719 9.69433 40.3164 12.353 43.8877C12.346 44.1157 12.3287 44.3486 12.3287 44.5718C12.3287 45.5591 12.3967 46.5174 12.5373 47.4464C12.9498 50.1561 13.1634 52.4416 13.1634 54.4332C13.1634 54.7121 13.1537 54.979 13.1464 55.2505C10.4997 56.1725 6.8874 57.1501 4.06113 56.8663C4.06113 56.8663 7.3582 59.4959 12.3507 60.253C12.1617 60.8547 11.9358 61.4465 11.6716 62.0459C10.6356 64.3724 8.95195 66.7838 6.37792 69.7288C5.68183 70.5221 5.14335 71.3301 4.77216 72.1742C4.40068 73.0162 4.20204 73.9015 4.20673 74.7555C4.20204 75.7718 4.48329 76.7108 4.88378 77.4775C5.49257 78.6324 6.32226 79.4328 7.07695 80.0392C7.82167 80.6336 8.52773 81.0508 8.97626 81.325C9.0249 81.354 9.25312 81.6599 9.40341 82.0771C9.56601 82.4943 9.66298 83.0161 9.66064 83.4259C9.66298 83.6881 9.62197 83.9014 9.58329 84.018L9.53466 84.132L9.52997 84.1443L9.53466 84.1346V84.1393L9.52997 84.1443H9.52763C9.1371 84.5395 8.78993 84.974 8.52568 85.4978C8.25644 86.0193 8.08183 86.6477 8.08417 87.2831C8.08183 88.0208 8.31708 88.7002 8.60331 89.1951C9.04247 89.9521 9.54697 90.4033 9.98876 90.7815C10.1051 90.8761 10.2094 90.9564 10.321 91.0411C10.2847 91.1407 10.2483 91.2426 10.2073 91.354C10.1127 91.6135 10.0034 91.9118 9.91113 92.2663C9.8165 92.6178 9.72685 93.028 9.72421 93.5594C9.72421 94.0033 9.7995 94.5567 10.0734 95.1192C10.338 95.6846 10.8085 96.1964 11.3109 96.5093L11.4199 96.5796L11.3206 96.5163C11.9587 96.9362 12.1673 97.2541 12.3492 97.6566C12.5188 98.0591 12.6111 98.6319 12.6064 99.374C12.6138 100.286 12.4705 101.383 12.4608 102.625C12.4608 103.003 12.4778 103.396 12.5311 103.813C12.6185 104.532 12.8101 105.32 13.1619 106.128C13.6837 107.333 14.6103 108.597 16.0271 109.51C17.4416 110.424 19.2756 110.936 21.4225 110.933C23.3997 110.931 25.6655 110.521 28.3415 109.621L28.3585 109.616C30.4837 108.9 32.325 108.6 33.9334 108.6C36.1992 108.607 38.0068 109.174 39.6466 110.172C40.8718 110.926 42 111.945 43.0383 113.199C44.6007 115.077 45.9518 117.486 47.1138 120.145C48.2807 122.806 49.2559 125.71 50.1293 128.573C50.6848 130.392 50.9103 132.076 50.9103 133.636C50.9103 137.462 49.5495 140.615 48.1471 142.85C47.4507 143.961 46.7496 144.832 46.2381 145.404C45.9832 145.695 45.7746 145.909 45.634 146.044L45.486 146.19L45.4641 146.209L45.457 146.214L46.4856 147.359L48.8314 149.999C48.9527 149.887 50.6874 148.335 52.4414 145.545C54.1904 142.76 55.9761 138.684 55.9787 133.635C55.9787 131.586 55.6802 129.385 54.9767 127.088C53.3634 121.838 51.3888 116.188 48.201 111.62C46.6046 109.339 44.6783 107.316 42.3009 105.853C39.9234 104.388 37.0898 103.522 33.9337 103.532C31.6922 103.532 29.2977 103.954 26.7381 104.815L26.7404 104.813C24.4406 105.589 22.6843 105.865 21.4227 105.861C20.5008 105.861 19.8436 105.725 19.3702 105.545C18.6642 105.269 18.3199 104.931 18.0407 104.526C17.7715 104.128 17.6112 103.619 17.5579 103.182C17.5435 103.042 17.5312 102.852 17.5312 102.624C17.5216 101.86 17.6695 100.713 17.6768 99.3737C17.6742 98.2797 17.5676 97.0109 17.0241 95.7034C16.6239 94.7161 15.9419 93.7551 15.0155 92.9594C15.0495 92.8721 15.0785 92.7848 15.1175 92.6902C15.2121 92.4259 15.3164 92.125 15.4137 91.7682C15.5057 91.4114 15.593 90.9942 15.5953 90.4701C15.5953 90.0455 15.5297 89.5288 15.2971 88.9976C15.0715 88.4662 14.6686 87.9567 14.2005 87.6171C13.9749 87.4496 13.7733 87.3019 13.594 87.166C13.9629 86.6662 14.2271 86.1324 14.3997 85.6012C14.6396 84.8638 14.7296 84.1334 14.7319 83.425C14.7272 82.1682 14.4554 80.9749 13.9825 79.8784C13.7423 79.3302 13.4464 78.8084 13.0728 78.3209C12.6943 77.8311 12.2335 77.37 11.6197 76.9964C11.3215 76.8168 11.0036 76.6252 10.6931 76.412C10.2249 76.0938 9.7954 75.7203 9.55986 75.4124C9.43857 75.2571 9.36825 75.1238 9.32724 75.0245C9.28827 74.9202 9.27626 74.8522 9.27626 74.7552C9.27626 74.6509 9.29062 74.4933 9.41191 74.2167C9.53085 73.9449 9.76874 73.552 10.1933 73.0668C12.9395 69.923 14.9651 67.1111 16.3043 64.1055C17.6484 61.102 18.2399 57.9532 18.2352 54.4329C18.2329 53.1836 18.16 51.8831 18.029 50.515C21.7166 54.3432 24.8437 56.866 24.8437 56.866C24.8437 56.866 22.8179 39.6318 27.3788 36.0851C27.3788 36.0851 45.1201 70.044 61.34 67.0065L72.4898 76.6329C72.4898 76.6329 75.0252 60.4126 82.6306 58.8942C90.2338 57.3757 89.7243 71.5677 80.6024 83.2244V98.348C79.8454 99.6265 79.176 100.886 78.6205 102.135C78.3269 102.802 78.1353 103.528 77.9921 104.365C77.8538 105.199 77.7785 106.141 77.7785 107.196C77.7835 111.436 79.0084 117.555 82.9216 124.959C85.4253 129.677 88.909 133.185 91.7642 135.551C94.6195 137.911 96.8637 139.127 96.968 139.185L98.9499 135.517L99.3817 134.726L99.377 134.723C99.3384 134.701 97.3488 133.61 94.8744 131.543C92.3903 129.471 89.4305 126.429 87.4025 122.589C83.8242 115.832 82.8439 110.461 82.8466 107.196C82.8466 106.388 82.9072 105.711 82.9922 105.194C83.0748 104.677 83.1961 104.318 83.2567 104.187C84.4286 101.528 86.4688 98.394 88.9456 94.9783C92.6575 89.8449 97.3394 84.0564 101.508 77.7781C105.671 71.4948 109.349 64.702 110.954 57.4091C111.605 54.4642 111.93 51.3491 111.93 48.1613C111.925 39.1827 109.339 29.5636 103.696 21.5093C112.058 23.324 122.762 29.0735 117.097 47.067C111.352 65.3128 96.8256 90.9992 109.494 109.073C120.083 124.182 136.864 119.214 136.864 119.214C129.259 110.088 116.87 96.0948 133.315 71.5683Z" fill="black"/>
</g>
<defs>
<clipPath id="clip0_450_20">
<rect width="150" height="150" fill="white"/>
</clipPath>
</defs>
</svg>
