<svg width="23" height="23" viewBox="0 0 23 23" fill="none" xmlns="http://www.w3.org/2000/svg">
<path d="M15.3352 11.9423L22.8889 18.5274C22.9607 18.2916 23 18.0414 23 17.7825V5.25977L15.3352 11.9423Z" fill="white"/>
<path d="M11.5 12.7175C11.8238 12.7168 12.1428 12.6055 12.4034 12.3788L22.4426 3.62694C21.9743 3.03954 21.254 2.66211 20.4444 2.66211H2.5556C1.74598 2.66211 1.0257 3.0395 0.557434 3.62694L10.5966 12.3788C10.8568 12.6055 11.1762 12.7168 11.5 12.7175Z" fill="white"/>
<path d="M0 5.25977V17.7825C0 18.0414 0.0393066 18.2916 0.111092 18.5274L7.66479 11.9419L0 5.25977Z" fill="white"/>
<path d="M13.4529 13.5832C12.8945 14.0702 12.1951 14.3156 11.5 14.3149C10.8049 14.3156 10.1052 14.0699 9.54707 13.5832L8.88021 13.002L1.03999 19.8369C1.46437 20.1503 1.98749 20.3381 2.55561 20.3381H20.4444C21.0125 20.3381 21.5356 20.1503 21.96 19.8369L14.1198 13.002L13.4529 13.5832Z" fill="white"/>
</svg>
