<svg width="28" height="20" viewBox="0 0 28 20" fill="none" xmlns="http://www.w3.org/2000/svg">
<path d="M18.6689 10.9449L27.8647 18.0475C27.9521 17.7932 28 17.5234 28 17.244V3.7373L18.6689 10.9449Z" fill="#E12C6D"/>
<path d="M14 11.7811C14.3942 11.7803 14.7826 11.6603 15.0998 11.4158L27.3214 1.9762C26.7513 1.34264 25.8745 0.935547 24.8888 0.935547H3.11117C2.12554 0.935547 1.24868 1.34259 0.678619 1.9762L12.9002 11.4158C13.217 11.6603 13.6058 11.7803 14 11.7811Z" fill="#E12C6D"/>
<path d="M0 3.7373V17.244C0 17.5234 0.0478516 17.7932 0.135242 18.0475L9.33105 10.9445L0 3.7373Z" fill="#E12C6D"/>
<path d="M16.3775 12.7138C15.6976 13.2391 14.8462 13.5037 14 13.503C13.1538 13.5037 12.302 13.2388 11.6225 12.7138L10.8107 12.0869L1.26608 19.4589C1.78272 19.797 2.41955 19.9996 3.11118 19.9996H24.8888C25.5805 19.9996 26.2173 19.797 26.7339 19.4589L17.1893 12.0869L16.3775 12.7138Z" fill="#E12C6D"/>
</svg>
