<svg width="35" height="61" viewBox="0 0 35 61" fill="none" xmlns="http://www.w3.org/2000/svg">
<path d="M19.7364 0.241085C19.4904 0.36409 18.7971 0.643642 18.1933 0.844921C16.7955 1.31457 16.4042 1.56057 15.9345 2.26505L15.5431 2.84652V5.08294C15.5431 6.42479 15.4872 7.52064 15.4089 7.82256C15.3195 8.13565 15.2748 9.33214 15.2748 11.0095L15.2636 13.6932L14.7939 15.035C14.4808 15.9184 14.2572 16.813 14.1454 17.6628C13.9217 19.2619 13.8323 19.6085 13.508 20.0781L13.2508 20.4583L12.1326 20.3912C11.0815 20.3242 10.9696 20.2906 10.3323 19.8881C9.53834 19.3737 9.35943 19.3513 9.19169 19.7315C9.1246 19.8881 8.99042 20.0111 8.88978 20.0111C8.80032 20.0111 8.72204 20.0893 8.72204 20.1788C8.72204 20.2682 8.66613 20.3465 8.61022 20.3465C8.54313 20.3465 8.43131 20.4695 8.36422 20.6261C8.29712 20.7826 8.16294 20.9056 8.08466 20.9056C7.99521 20.9056 7.82748 20.9504 7.71566 21.0174C7.52556 21.1181 7.52556 21.1516 7.69329 21.6884C7.86102 22.2251 7.86102 22.2587 7.6262 22.6836C7.49201 22.9184 7.38019 23.2427 7.38019 23.4104C7.38019 23.69 7.35783 23.7012 6.72045 23.7012C5.90415 23.7012 4.8754 24.0143 4.13738 24.4839C3.83546 24.6852 3.57827 24.8753 3.57827 24.9088C3.57827 24.9424 3.98083 24.9312 4.47284 24.8976C4.96486 24.8529 5.36741 24.8529 5.36741 24.8865C5.36741 24.92 5.19968 25.1548 4.98722 25.4008C4.19329 26.3289 3.35463 28.3976 3.35463 29.4376C3.35463 29.7059 3.43291 29.6165 3.79074 28.8897C4.03674 28.3976 4.46166 27.682 4.74121 27.2906L5.24441 26.575V28.051C5.24441 29.5941 5.4345 31.3944 5.60224 31.5734C5.65815 31.6404 5.70288 31.5286 5.70288 31.2826C5.70288 30.6676 6.00479 29.2363 6.23962 28.6884C6.47444 28.1628 6.70927 27.9392 6.70927 28.2299C6.70927 28.4424 7.14537 28.6213 7.65974 28.6213C7.8722 28.6213 8.0623 28.666 8.09585 28.7219C8.16294 28.8226 6.79872 30.5558 6.03834 31.3609C5.49042 31.9424 4.92013 32.8258 4.02556 34.5366C3.27636 35.9567 3.11981 36.1692 2.40415 36.7171C1.97923 37.0414 1.83387 37.3098 1.28594 38.7858C1.05112 39.3897 0.838658 39.7587 0.480831 40.0941C0.223642 40.3513 0 40.6197 0 40.6868C0 40.9216 0.42492 40.8098 0.984026 40.4296L1.55431 40.0494L1.67732 40.7986C1.88978 42.0622 2.13578 42.174 2.21406 41.0334L2.25879 40.3625L2.82907 40.8098C3.74601 41.5366 3.8131 41.4024 3.07508 40.3289C2.57189 39.5909 2.51597 39.4232 2.63898 39.0877C2.77316 38.7299 2.98562 38.92 3.16454 39.5797C3.35463 40.2283 3.5 40.4072 3.61182 40.1053C3.64537 40.0159 3.70128 39.3785 3.74601 38.6852C3.80192 37.8577 3.90256 37.2539 4.03674 36.9631C4.15974 36.6836 4.79712 35.9456 5.71406 35.051C6.51917 34.2459 7.34665 33.3401 7.54792 33.0382C7.7492 32.7251 8.36422 31.9759 8.90096 31.3609C9.99681 30.1309 10.0415 30.1309 9.85144 31.4168C9.68371 32.4679 9.35943 33.3066 8.76677 34.1676C8.26358 34.9056 8.27476 35.0063 8.82268 34.7267C9.18051 34.5366 9.59425 34.0334 9.9409 33.3289L10.1981 32.8369L10.5112 33.396C10.9249 34.1229 12.3227 35.4088 13.1837 35.8785L13.8658 36.2363L13.3067 35.6548C12.9489 35.2746 12.5575 34.682 12.1997 33.944C11.3946 32.289 11.3722 32.1436 12.0319 32.8146C13.0831 33.8545 14.4473 34.559 15.4201 34.5478L15.8227 34.5366L15.2077 34.2459C14.4361 33.8769 13.4744 32.904 13.0048 32.0095C12.8035 31.6404 12.6358 31.305 12.6358 31.2714C12.6358 31.2379 12.8482 31.3273 13.1054 31.4727C13.3738 31.6181 13.8435 31.8417 14.1565 31.9647L14.7268 32.1884L14.1565 31.6069C13.5974 31.0366 13.3179 30.4551 13.139 29.5158L13.0607 29.1245L13.4185 29.6053C13.8882 30.2203 14.5591 30.6788 15.353 30.9136C16.2029 31.1596 16.3706 31.0813 15.7556 30.7235C14.9169 30.2315 14.369 29.6724 13.9776 28.9344C13.631 28.297 13.5974 28.1404 13.5863 27.2794V26.3289L14.5032 26.2954C16.4601 26.2283 18.5064 27.1005 18.9425 28.1964C19.1997 28.8337 19.3003 30.5558 19.1214 31.305C19.0431 31.6404 18.976 32.2443 18.976 32.658C18.976 33.6197 19.345 34.4248 20.1166 35.1404C20.7875 35.7666 20.8546 36.0909 20.5527 37.2315C20.3626 37.9695 20.3403 38.2938 20.4073 39.9935C20.4633 41.682 20.4409 42.0734 20.2396 43.1692C20.1054 43.8625 19.8818 44.7906 19.7364 45.2267C19.3227 46.5127 19.3003 46.9711 19.5799 49.8337C19.7812 52.0031 19.8035 52.6628 19.7141 53.4679C19.6022 54.396 19.5799 54.4743 19.1326 54.9551C18.8642 55.2459 18.6741 55.559 18.6741 55.7155C18.6741 56.2075 19.2556 57.1804 19.7029 57.4152C20.0495 57.6053 20.1278 57.7171 20.2955 58.321C20.5527 59.2826 20.9665 60.1213 21.2125 60.1884C21.3243 60.2219 21.7939 60.2778 22.2524 60.3226C22.9121 60.3785 23.1358 60.3561 23.3147 60.2219C23.639 59.9871 23.4377 59.7299 22.722 59.4615C21.9728 59.182 21.861 58.8465 22.1294 57.5718C22.2412 56.9903 22.2412 56.6436 22.1518 56.0398C21.9728 54.8657 21.9952 52.4168 22.2077 51.4887C22.2971 51.0526 22.4201 49.7778 22.4649 48.6373C22.5208 47.4967 22.6214 46.3561 22.6885 46.0877C22.7668 45.8194 23.0911 44.9695 23.4265 44.1756C23.7508 43.3928 24.0974 42.3976 24.1869 41.9727L24.3323 41.2012L25.5288 40.3066C27.0383 39.166 27.3403 38.8641 27.6422 38.2491C27.7987 37.9024 28.492 37.1309 29.7444 35.8897C31.7684 33.8769 32.9313 32.535 33.6358 31.4168C33.893 31.0142 34.2284 30.567 34.3738 30.4104C34.7428 30.0414 35 29.404 35 28.8673C35 28.0063 33.9265 26.944 33.0655 26.944C32.0591 26.944 26.5128 27.8721 25.3163 28.2299C25.115 28.297 25.0479 28.2411 24.9361 27.8944C24.8019 27.4919 23.9521 26.1836 22.1518 23.6452C21.6374 22.9072 21.1006 22.035 20.9553 21.7107C20.8211 21.3753 20.5415 20.9392 20.3403 20.7267C19.9601 20.3353 19.155 20.0111 18.5623 20.0111C18.361 20.0111 18.0927 19.8321 17.6789 19.4072L17.0751 18.8034L17.1534 15.1245C17.1981 12.6756 17.2875 11.0654 17.3994 10.2826C17.5783 9.14204 17.5783 9.05259 17.3435 7.76665C17.0639 6.12288 16.8514 4.00946 16.9521 3.62926C16.9968 3.45035 17.0974 3.34971 17.2316 3.34971C17.3435 3.34971 17.6342 3.27144 17.8802 3.1708C18.2716 3.01425 18.3722 3.01425 18.9089 3.1708C19.7588 3.42799 19.8818 3.23789 19.2332 2.6676C18.9537 2.43278 18.7748 2.2315 18.8195 2.2315C18.8754 2.2315 19.278 2.17559 19.7141 2.1085C21.0447 1.9184 21.5367 1.69476 21.0671 1.51585C20.9665 1.4823 20.7652 1.44875 20.6086 1.44875C20.3179 1.44875 20.3291 1.43757 20.754 1.06856C20.9888 0.856102 21.1565 0.654823 21.1118 0.610096C21.0671 0.565369 20.8099 0.610096 20.5192 0.699554L20.016 0.878468L20.2955 0.509457C20.4521 0.308178 20.5751 0.106899 20.5751 0.0733566C20.5751 -0.0720139 20.1837 0.00626373 19.7364 0.241085ZM27.1949 32.5015C27.0719 32.6804 26.7141 33.2619 26.3898 33.821C26.0655 34.3689 25.5511 35.1964 25.238 35.6325L24.6901 36.4488H24.1198H23.5607L23.639 35.9344C23.6725 35.6436 23.7061 35.1964 23.7061 34.9392C23.7061 34.4695 23.7173 34.4583 24.2093 34.3242C24.5112 34.2347 24.992 33.944 25.4617 33.5526C26.3898 32.7698 27.1725 32.1996 27.3067 32.1996C27.3626 32.1996 27.3179 32.3337 27.1949 32.5015Z" fill="white"/>
</svg>
