<svg width="46" height="46" viewBox="0 0 46 46" fill="none" xmlns="http://www.w3.org/2000/svg">
<g clip-path="url(#clip0_90_179)">
<path d="M35.1838 26.0862C34.8381 25.2582 33.4595 24.1556 33.4595 24.1556C33.4595 24.1556 31.0467 20.3628 30.2191 20.0185C29.3911 19.6728 27.2659 18.0037 26.3007 17.6595C25.3354 17.3152 23.922 16.968 23.6111 16.3492C23.4731 16.0732 23.4041 15.694 23.6111 15.418C23.8174 15.142 24.4042 14.3155 24.4042 13.8666C24.4042 13.4185 24.4384 12.7975 24.4384 12.6602C24.4384 12.5222 24.7144 11.7298 24.3694 10.9708C23.8638 9.85735 21.4736 9.3155 20.4393 10.6258C20.1132 10.8125 19.8721 11.3209 19.6534 11.9106C19.5698 11.4777 19.5161 11.1516 19.5074 11.0398C19.474 10.5909 21.7662 5.40209 21.99 4.81675C22.2137 4.23061 21.9565 3.3859 21.4561 2.88547C20.9565 2.38576 20.2148 0.989051 20.1633 0.644769C20.1118 0.299051 19.7661 0.368769 19.7152 0.60991C19.6629 0.85114 19.7501 1.54105 19.9563 2.05819C19.0085 1.76476 18.3359 2.4199 18.3701 2.86876C18.3992 3.24646 18.4551 3.60818 18.678 3.63064C18.6526 3.75336 18.7122 3.9335 18.9221 4.14409C19.4741 4.69609 20.3703 4.35109 20.1633 4.76437C19.9563 5.17837 17.2675 10.4877 17.3358 11.0397C17.3808 11.3963 17.5704 13.1373 17.773 14.603C17.1528 14.7395 16.4744 14.8637 16.1635 15.7977C15.6812 17.246 14.7153 18.0043 14.7153 18.0043C13.7507 18.1423 13.3367 17.729 13.7507 18.1423C14.1647 18.5563 15.4749 19.5906 16.4395 18.9696C16.8448 19.2281 17.5261 19.5623 18.2611 19.6937C18.0092 20.4876 17.8225 21.1318 18.0258 21.6591C18.7159 23.4524 18.7841 25.5893 18.2873 27.161C18.0098 28.0377 16.2652 29.6906 14.2657 32.7935C12.2662 35.897 12.1079 39.4342 10.9922 43.7251C10.9922 43.7251 10.8752 44.6157 13.1305 44.4834C16.2376 44.3004 14.8547 45.1734 18.9221 45.8633C22.7032 46.5025 28.2072 44.2829 29.6642 40.3144C30.2082 41.1881 30.7969 42.1157 30.7969 42.1157L31.1963 44.6534C31.1963 44.6534 31.0264 45.7617 30.8492 45.9854C30.6719 46.2091 31.054 46.4793 31.5406 46.3893C32.0287 46.2984 32.8553 45.8431 32.9206 45.4334C32.986 45.0237 32.8915 43.8355 32.7463 43.561C32.601 43.2864 32.6592 43.2109 32.9163 43.3779C33.1952 43.5595 33.1821 43.8311 33.339 43.991C33.583 44.2386 33.8067 44.0222 33.7792 43.8921C33.753 43.7628 33.541 43.0147 33.23 42.2957C32.9672 41.687 32.4645 41.167 32.3977 40.9897L31.2386 39.1303C32.6432 38.7425 34.3937 38.8972 34.093 38.5529C33.127 37.4496 31.1427 34.6867 30.4527 33.3766C29.7631 32.0663 27.2661 27.7955 24.5076 26.003C24.5076 26.003 25.552 21.6553 25.966 21.311C26.38 20.966 29.4603 22.1564 29.8053 22.2247C30.151 22.293 32.1509 24.9135 32.2192 25.2578C32.2875 25.6028 32.0115 26.6378 32.2192 27.6024C32.4255 28.5684 32.7698 27.7404 32.9078 27.0504C32.9078 27.0504 34.2878 28.9824 34.5638 29.0507C34.8383 29.1197 34.908 28.4304 34.7018 28.0164C34.4938 27.6027 35.5281 26.9136 35.1838 26.0862ZM19.1981 3.59236C19.1124 3.50665 19.0171 3.46308 18.9322 3.4558C18.9496 3.22634 18.6882 2.83992 19.0601 2.62708C19.5431 2.3518 19.9563 2.62708 20.1633 3.11008C20.3703 3.59236 19.5423 3.93736 19.1981 3.59236Z" fill="white"/>
</g>
<defs>
<clipPath id="clip0_90_179">
<rect width="46" height="46" fill="white"/>
</clipPath>
</defs>
</svg>
