<svg width="51" height="52" viewBox="0 0 51 52" fill="none" xmlns="http://www.w3.org/2000/svg">
<g clip-path="url(#clip0_236_38)">
<path d="M25.5 0C11.4177 0 0 11.6416 0 26C0 40.3583 11.4177 52 25.5 52C39.5822 52 51 40.3583 51 26C51 11.6416 39.5822 0 25.5 0ZM34.9691 26.2943L20.6253 35.0231C20.5226 35.0867 20.3918 35.0898 20.286 35.0263C20.1833 34.9659 20.118 34.8534 20.118 34.728V25.9991V17.2702C20.118 17.1465 20.1833 17.0322 20.286 16.9718C20.3918 16.91 20.5226 16.9131 20.6253 16.975L34.9691 25.7055C35.0718 25.765 35.1325 25.88 35.1325 25.999C35.1325 26.1206 35.0719 26.2333 34.9691 26.2943Z" fill="#AFAFB0"/>
</g>
<defs>
<clipPath id="clip0_236_38">
<rect width="51" height="52" fill="white"/>
</clipPath>
</defs>
</svg>
