<svg width="37" height="37" viewBox="0 0 37 37" fill="none" xmlns="http://www.w3.org/2000/svg">
<g clip-path="url(#clip0_320_122)">
<path d="M27.1953 22.5838C30.7824 16.8911 30.1031 9.26333 25.1498 4.30988C19.4041 -1.43632 10.0555 -1.43632 4.30922 4.30988C-1.43641 10.0562 -1.43641 19.4042 4.30922 25.1498C9.26201 30.1031 16.8917 30.7818 22.5837 27.1953L32.3879 37L37 32.3886L27.1953 22.5838ZM21.4299 21.43C17.7356 25.1256 11.724 25.1256 8.02902 21.43C4.33473 17.7357 4.33538 11.7248 8.02967 8.02975C11.724 4.33546 17.7356 4.33481 21.4299 8.02917C25.1242 11.7248 25.1242 17.7357 21.4299 21.43Z" fill="#4B4B4B"/>
</g>
<defs>
<clipPath id="clip0_320_122">
<rect width="37" height="37" fill="white"/>
</clipPath>
</defs>
</svg>
