<svg width="156" height="44" viewBox="0 0 156 44" fill="none" xmlns="http://www.w3.org/2000/svg">
<path d="M71.1709 36.6529C74.0835 38.4732 77.1418 39.7839 80.4913 40.512C82.1661 40.8761 83.8408 41.0945 85.5156 41.1673C87.1904 41.2401 88.9379 41.1673 90.6127 40.8761C93.9622 40.2936 97.239 39.0557 100.006 37.017C102.773 35.051 105.103 32.3569 106.559 29.2259C108.016 26.0949 108.525 22.5998 108.016 19.2504C107.506 15.901 105.904 12.77 103.574 10.2943C101.244 7.89148 98.3312 6.14395 95.1273 5.19737C91.9962 4.25079 88.6467 4.03235 85.37 4.25079C82.0933 4.54205 78.8894 5.343 75.6855 6.36239L65.7825 9.85745C59.1563 12.1147 52.5301 14.3719 45.9038 16.5563L35.928 19.8329C32.5785 20.9251 29.3018 22.0901 25.9523 23.2552L21.0008 25.0027L19.7629 25.4396C19.326 25.5852 18.8891 25.7308 18.4522 25.8765C17.5784 26.1677 16.6318 26.3862 15.758 26.5318C12.1172 27.1871 8.11236 27.3327 4.54438 25.8036C2.7968 25.0755 1.12207 23.692 0.393914 21.7989C0.0298344 20.8523 -0.115815 19.8329 0.102633 18.8135C0.248264 17.7941 0.685159 16.9204 1.19487 16.1194C2.28711 14.5175 3.88906 13.4253 5.56382 12.6244C7.23859 11.8234 9.13181 11.3865 10.9522 11.3137C14.593 11.0953 18.1609 11.6778 21.6561 12.3331C25.1513 12.9884 28.5736 13.8622 31.996 14.736C38.8407 16.4107 45.6854 18.1582 52.4572 19.7601C55.8796 20.5611 59.3019 21.362 62.7243 22.163C66.1466 22.8911 69.5689 23.5464 72.9913 24.0561C79.836 25.1483 86.7535 25.8036 93.7438 25.8765C100.661 25.9493 107.652 25.4396 114.569 24.3474C128.404 22.2358 141.875 18.0854 155.2 13.6438C155.419 13.5709 155.637 13.7166 155.71 13.935C155.783 14.1535 155.637 14.3719 155.492 14.4447C142.385 19.6145 128.987 24.3474 115.006 26.9687C108.016 28.2793 100.88 29.0803 93.7438 29.1531C86.6078 29.2259 79.4719 28.789 72.4088 27.6968C68.9136 27.1871 65.4185 26.459 61.9233 25.658C58.501 24.8571 55.0786 23.9833 51.6562 23.0367C44.8115 21.2164 38.1125 19.1048 31.3406 17.066C27.9911 16.0466 24.6416 15.1 21.2192 14.2263C19.5445 13.7894 17.7969 13.4253 16.1221 13.2069C14.4474 12.9156 12.6998 12.77 11.025 12.8428C9.35024 12.9156 7.67547 13.2069 6.14634 13.935C4.69002 14.6632 3.2337 15.6097 2.35991 16.9204C1.4133 18.231 1.12206 19.8329 1.70459 21.2892C2.28712 22.6727 3.67061 23.692 5.19974 24.1289C6.72887 24.5658 8.40362 24.5658 10.0056 24.3474C11.6075 24.1289 13.2095 23.6192 14.8114 23.0367C16.4134 22.4542 17.8697 21.7989 19.4716 20.9979L24.2775 18.8135C27.4814 17.3573 30.7581 15.9738 34.0348 14.5903C37.3115 13.2069 40.5882 11.8234 43.8649 10.5856C50.4912 8.0371 57.1902 5.85269 64.0349 3.88672C67.4573 2.94014 70.8796 1.99357 74.302 1.19262C77.9428 0.318851 81.6564 -0.118031 85.4428 0.0275965C89.2292 0.173224 92.9428 0.974175 96.3652 2.50326C99.7875 4.03235 102.919 6.28957 105.176 9.20212C107.506 12.1147 108.962 15.6097 109.326 19.2504C109.763 22.8911 109.108 26.6046 107.579 29.8812C106.05 33.1578 103.72 35.9976 100.807 38.182C97.9671 40.3664 94.5448 41.9683 91.0496 42.7692C89.3021 43.2061 87.4816 43.4246 85.6612 43.5702C83.8408 43.643 82.0205 43.5702 80.2001 43.4246C76.5593 43.0605 72.9185 42.1139 69.4961 40.8761H69.4233C68.2583 40.4392 67.6757 39.2014 68.0398 37.9635C68.4767 36.7985 69.7146 36.216 70.9524 36.5801C70.8796 36.5073 71.0252 36.5801 71.1709 36.6529Z" fill="#E12C6D"/>
<path d="M4.10746 2.21207C6.72883 0.901427 9.71429 0.318917 12.6269 0.17329C15.5396 0.0276626 18.4522 0.464545 21.2192 0.974241C26.826 2.13926 32.2144 3.81397 37.6027 5.48869C48.3795 8.91093 59.229 11.9691 70.3699 13.7895C81.4379 15.7554 92.7971 15.9739 103.938 14.5176C109.472 13.7895 115.006 12.6244 120.394 11.1682C125.783 9.63907 131.025 7.81873 136.341 5.77994C137.288 5.41588 138.453 5.85276 138.817 6.87215C139.181 7.89154 138.744 8.98375 137.725 9.34782L137.579 9.42063C126.729 12.5516 115.516 15.2457 104.156 16.1923C98.4768 16.702 92.7972 16.8476 87.1175 16.6292C81.4379 16.4107 75.8311 15.7554 70.2242 14.736C64.6174 13.7895 59.0834 12.5516 53.6222 11.1682C48.161 9.7847 42.6998 8.1828 37.3115 6.58089C31.9231 5.05181 26.4619 3.30428 21.0007 2.43051C18.2337 1.99363 15.4667 1.77519 12.7726 1.92082C10.0784 2.13926 7.45698 2.79458 5.05405 4.10523C4.54434 4.39648 3.889 4.17804 3.59774 3.66835C3.30647 3.15865 3.52495 2.50333 4.03466 2.21207H4.10746Z" fill="#E12C6D"/>
</svg>
