<svg width="159" height="45" viewBox="0 0 159 45" fill="none" xmlns="http://www.w3.org/2000/svg">
<path d="M85.9767 37.3738C83.0127 39.2263 79.9004 40.5601 76.4918 41.301C74.7875 41.6715 73.0832 41.8938 71.3788 41.9679C69.6745 42.042 67.8961 41.9679 66.1918 41.6715C62.7831 41.0787 59.4486 39.8191 56.6328 37.7443C53.8169 35.7436 51.4457 33.002 49.9637 29.8158C48.4817 26.6295 47.963 23.0728 48.4817 19.6642C49.0004 16.2557 50.6306 13.0695 53.0018 10.5501C55.3731 8.10484 58.3371 6.32647 61.5975 5.36319C64.7839 4.39991 68.1925 4.17761 71.527 4.39991C74.8616 4.6963 78.122 5.51139 81.3825 6.54877L91.5343 10.0314C98.2775 12.3285 105.021 14.6255 111.764 16.8485L121.916 20.1829C125.324 21.2944 128.659 22.48 132.067 23.6656L137.106 25.4439L138.366 25.8885C138.811 26.0367 139.255 26.1849 139.7 26.3331C140.589 26.6295 141.552 26.8518 142.442 27C146.147 27.6669 150.222 27.8151 153.853 26.259C155.632 25.518 157.336 24.1102 158.077 22.1836C158.447 21.2203 158.596 20.1829 158.373 19.1455C158.225 18.1082 157.78 17.219 157.262 16.4039C156.15 14.7737 154.52 13.6622 152.816 12.8472C151.111 12.0321 149.185 11.5875 147.332 11.5134C143.627 11.2911 139.996 11.8839 136.439 12.5508C132.883 13.2176 129.4 14.1068 125.917 14.996C118.952 16.7003 111.986 18.4787 105.095 20.1088C101.612 20.9239 98.1293 21.739 94.6465 22.5541C91.1638 23.2951 87.681 23.962 84.1983 24.4806C77.2328 25.5921 70.1932 26.259 63.0795 26.3331C56.04 26.4072 48.9263 25.8885 41.8867 24.777C27.8075 22.6282 14.0989 18.4046 0.538416 13.8845C0.316113 13.8104 0.0938107 13.9586 0.0197098 14.1809C-0.054391 14.4032 0.0938105 14.6255 0.242012 14.6996C13.5802 19.9606 27.2147 24.777 41.4421 27.4446C48.5558 28.7784 55.8177 29.5935 63.0795 29.6676C70.3414 29.7417 77.6033 29.2971 84.7911 28.1856C88.3479 27.6669 91.9048 26.9259 95.4616 26.1108C98.9444 25.2957 102.427 24.4065 105.91 23.4433C112.875 21.5908 119.693 19.4419 126.584 17.3672C129.993 16.3298 133.401 15.3665 136.884 14.4773C138.588 14.0327 140.367 13.6622 142.071 13.4399C143.775 13.1435 145.554 12.9954 147.258 13.0695C148.962 13.1435 150.667 13.4399 152.223 14.1809C153.705 14.9219 155.187 15.8852 156.076 17.219C157.039 18.5528 157.336 20.1829 156.743 21.6649C156.15 23.0728 154.742 24.1102 153.186 24.5547C151.63 24.9993 149.926 24.9993 148.296 24.777C146.665 24.5547 145.035 24.0361 143.405 23.4433C141.775 22.8505 140.293 22.1836 138.662 21.3685L133.772 19.1455C130.511 17.6636 127.177 16.2557 123.842 14.8478C120.508 13.4399 117.173 12.0321 113.839 10.7724C107.095 8.17894 100.278 5.95598 93.3127 3.95531C89.83 2.99203 86.3472 2.02875 82.8645 1.21366C79.1594 0.324478 75.3803 -0.120114 71.527 0.0280835C67.6738 0.176281 63.8947 0.991366 60.4119 2.54744C56.9292 4.10351 53.7428 6.40057 51.4457 9.36452C49.0745 12.3285 47.5925 15.8852 47.222 19.5901C46.7774 23.2951 47.4443 27.0741 49.0004 30.4085C50.5565 33.743 52.9277 36.6328 55.8918 38.8558C58.7817 41.0788 62.2644 42.7089 65.8213 43.524C67.5997 43.9686 69.4522 44.1909 71.3047 44.3391C73.1573 44.4132 75.0098 44.3391 76.8623 44.1909C80.5674 43.8204 84.2724 42.8571 87.7551 41.5974H87.8292C89.0149 41.1528 89.6077 39.8932 89.2372 38.6335C88.7925 37.4479 87.5328 36.8551 86.2731 37.2256C86.2731 37.2256 86.1249 37.2997 85.9767 37.3738Z" fill="#E12C6D"/>
<path d="M154.224 2.32515C151.556 0.991377 148.518 0.398588 145.554 0.25039C142.59 0.102193 139.626 0.546785 136.81 1.06548C131.104 2.17696 125.621 3.95532 120.137 5.65959C109.17 9.14223 98.1293 12.2544 86.7918 14.1068C75.5285 16.1075 63.9688 16.3298 52.6313 14.8478C46.9997 14.1068 41.368 12.9213 35.8845 11.4393C30.4011 9.88322 25.0658 8.03075 19.6564 5.95599C18.6931 5.5855 17.5075 6.03009 17.137 7.06747C16.7665 8.10485 17.2111 9.21633 18.2485 9.58682L18.3967 9.66092C29.4378 12.8472 40.8493 15.5888 52.409 16.5521C58.1889 17.0708 63.9688 17.219 69.7486 16.9967C75.5285 16.7744 81.2343 16.1075 86.94 15.0701C92.6458 14.1068 98.2775 12.8472 103.835 11.4393C109.393 10.0314 114.95 8.40125 120.434 6.77107C125.917 5.215 131.475 3.43663 137.032 2.54745C139.848 2.10286 142.664 1.88056 145.406 2.02876C148.147 2.25105 150.815 2.91794 153.26 4.25172C153.779 4.54811 154.446 4.32582 154.742 3.80713C155.039 3.28844 154.816 2.62155 154.298 2.32515H154.224Z" fill="#E12C6D"/>
</svg>
