<svg width="21" height="21" viewBox="0 0 21 21" fill="none" xmlns="http://www.w3.org/2000/svg">
<path d="M0 6.25361C0 5.37305 0.714575 4.65913 1.59514 4.65913C2.47632 4.65913 3.19089 5.37305 3.19089 6.25361C3.19089 6.68428 3.01978 7.07458 2.74226 7.36103C3.82725 9.60791 5.90112 10.3923 7.5084 9.68227C8.94009 9.04907 9.46817 7.23926 9.647 5.83706C9.06318 5.5301 8.66517 4.91868 8.66517 4.21308C8.66521 3.19988 9.48613 2.37891 10.5 2.37891C11.5132 2.37891 12.3348 3.19988 12.3348 4.21308C12.3348 4.91868 11.9368 5.53005 11.353 5.83706C11.5317 7.2393 12.0598 9.04911 13.4916 9.68227C15.0989 10.3924 17.1727 9.60791 18.2577 7.36103C17.9802 7.07458 17.8091 6.68428 17.8091 6.25361C17.8091 5.37305 18.5236 4.65913 19.4042 4.65913C20.2854 4.65913 21 5.37305 21 6.25361C21 7.06494 20.3937 7.73337 19.6106 7.83464L17.7719 14.5644H3.22805L1.3894 7.83464C0.605637 7.73337 0 7.06494 0 6.25361Z" fill="#E12C6D"/>
<path d="M2.33723 17.4343C2.33723 18.0899 2.86851 18.6212 3.52476 18.6212H17.4752C18.1308 18.6211 18.6621 18.0899 18.6621 17.4343V17.3356C18.6621 16.6793 18.1308 16.1481 17.4752 16.1481H3.52476C2.86851 16.1481 2.33723 16.6793 2.33723 17.3356V17.4343Z" fill="#E12C6D"/>
</svg>
